<?xml version="1.0" encoding="utf-8"?>
<!-- Generator: Adobe Illustrator 19.1.0, SVG Export Plug-In . SVG Version: 6.00 Build 0)  -->
<svg version="1.1" id="Layer_1" xmlns="http://www.w3.org/2000/svg" xmlns:xlink="http://www.w3.org/1999/xlink" x="0px" y="0px"
	 width="20px" height="23px" viewBox="0 0 20 23" style="enable-background:new 0 0 20 23;" xml:space="preserve">
<style type="text/css">
	.st0{clip-path:url(#SVGID_2_);fill:#AAA1A2;}
</style>
<g>
	<defs>
		<rect id="SVGID_1_" x="0.6" y="0.8" width="18.5" height="21.5"/>
	</defs>
	<clipPath id="SVGID_2_">
		<use xlink:href="#SVGID_1_"  style="overflow:visible;"/>
	</clipPath>
	<path class="st0" d="M5.3,9.7c-0.5-3.2,1.8-6.3,5-6.8c3.2-0.5,6.3,1.7,6.8,5l0,0c0.2,1.6-0.2,3.1-1.1,4.4c-0.9,1.3-2.3,2.1-3.9,2.3
		c-1.6,0.2-3.1-0.2-4.4-1.1S5.5,11.3,5.3,9.7L5.3,9.7z M4.1,22l0.1-0.1h0l4.1-5.6c1.3,0.5,2.6,0.7,4.1,0.5c4.4-0.7,7.4-4.7,6.7-9.1
		c0,0,0,0,0-0.1c-0.7-4.3-4.7-7.3-9.1-6.7C5.6,1.6,2.6,5.7,3.3,10c0,0,0,0,0,0.1c0.2,1.4,0.8,2.7,1.7,3.8l-4.1,5.6l-0.1,0.1
		c-0.3,0.4-0.2,1,0.2,1.3l1.8,1.3C3.2,22.5,3.8,22.4,4.1,22"/>
</g>
</svg>
