<?xml version="1.0" encoding="utf-8"?>
<!-- Generator: Adobe Illustrator 16.0.0, SVG Export Plug-In . SVG Version: 6.00 Build 0)  -->
<!DOCTYPE svg PUBLIC "-//W3C//DTD SVG 1.1//EN" "http://www.w3.org/Graphics/SVG/1.1/DTD/svg11.dtd">
<svg version="1.1" id="Layer_1" xmlns="http://www.w3.org/2000/svg" xmlns:xlink="http://www.w3.org/1999/xlink" x="0px" y="0px"
	 width="48px" height="48px" viewBox="0 0 48 48" enable-background="new 0 0 48 48" xml:space="preserve">
<path fill="#CF3427" d="M20.612,37.056h5.396V23.998h3.6l0.477-4.499h-4.076l0.007-2.253c0-1.173,0.112-1.802,1.795-1.802h2.25v-4.5
	h-3.601c-4.324,0-5.846,2.183-5.846,5.853v2.702h-2.695v4.5h2.695L20.612,37.056L20.612,37.056z M24,48c-13.254,0-24-10.746-24-24
	C0,10.745,10.745,0,24,0c13.255,0,24,10.745,24,24C48,37.253,37.253,48,24,48z"/>
</svg>
