<?xml version="1.0" encoding="utf-8"?>
<!-- Generator: Adobe Illustrator 16.0.0, SVG Export Plug-In . SVG Version: 6.00 Build 0)  -->
<!DOCTYPE svg PUBLIC "-//W3C//DTD SVG 1.1//EN" "http://www.w3.org/Graphics/SVG/1.1/DTD/svg11.dtd">
<svg version="1.1" xmlns="http://www.w3.org/2000/svg" xmlns:xlink="http://www.w3.org/1999/xlink" x="0px" y="0px" width="48px"
	 height="48px" viewBox="0 0 48 48" enable-background="new 0 0 48 48" xml:space="preserve">
<g id="Layer_1" display="none">
	<g display="inline">
		<path fill="#747474" d="M24,0C10.745,0,0,10.746,0,24c0,13.254,10.745,24,24,24c13.256,0,24-10.745,24-24C48,10.746,37.256,0,24,0
			z M26.393,32.314c-1.925,0-3.731-1.005-4.349-2.149c0,0-1.035,3.968-1.253,4.737c-0.771,2.708-3.037,5.417-3.212,5.643
			c-0.123,0.149-0.394,0.103-0.423-0.102c-0.048-0.344-0.627-3.762,0.052-6.546l2.291-9.393c0,0-0.569-1.099-0.569-2.726
			c0-2.556,1.528-4.461,3.433-4.461c1.619,0,2.4,1.179,2.4,2.587c0,1.578-1.04,3.934-1.572,6.114
			c-0.446,1.832,0.948,3.321,2.81,3.321c3.372,0,5.642-4.193,5.642-9.161c0-3.776-2.625-6.604-7.404-6.604
			c-5.397,0-8.763,3.899-8.763,8.253c0,1.502,0.457,2.563,1.174,3.381c0.329,0.375,0.375,0.528,0.255,0.957l-0.363,1.386
			c-0.117,0.438-0.485,0.591-0.89,0.43c-2.488-0.981-3.646-3.618-3.646-6.583c0-4.895,4.262-10.765,12.717-10.765
			c6.799,0,11.27,4.761,11.271,9.871C35.993,27.265,32.109,32.314,26.393,32.314z"/>
	</g>
</g>
<g id="Layer_2">
	<g>
		<path fill="#CF3427" d="M21.62,27.947c-0.712-0.227-1.502-0.362-2.345-0.372c-3.624-0.04-6.87,2.205-6.87,4.898
			c0,2.749,2.616,5.034,6.238,5.034c5.091,0,6.871-2.15,6.871-4.896c0-0.329-0.044-0.652-0.115-0.972
			C24.997,30.087,23.587,29.314,21.62,27.947z"/>
		<path fill="#CF3427" d="M23.237,15.75c-0.419-3.186-2.731-5.743-5.161-5.817c-2.43-0.073-4.061,2.366-3.643,5.556
			c0.418,3.184,2.729,5.827,5.16,5.897C22.026,21.458,23.657,18.935,23.237,15.75z"/>
		<path fill="#CF3427" d="M24,0.093c-13.254,0-24,10.725-24,23.954C0,37.275,10.746,48,24,48c13.255,0,24-10.725,24-23.954
			C48,10.818,37.255,0.093,24,0.093z M18.663,39.018c-5.241,0-9.663-2.13-9.663-5.533c0-3.454,4.035-6.779,9.273-6.783
			c0.571,0,1.098-0.006,1.634-0.006c-0.715-0.697-1.28-1.535-1.28-2.588c0-0.625,0.195-1.195,0.478-1.728
			c-0.286,0.021-0.578,0.088-0.876,0.088c-4.304,0-7.188-2.944-7.188-6.728c0-3.705,3.982-6.667,8.213-6.667
			c2.358,0,9.247,0,9.247,0l-1.502,1.497h-3.374c1.983,0,3.005,2.888,3.005,5.255c0,1.991-1.106,3.441-2.665,4.657
			c-1.524,1.19-1.811,1.688-1.811,2.696c0,0.863,1.629,2.328,2.483,2.928c2.49,1.762,3.299,3.396,3.299,6.124
			C27.937,35.631,24.636,39.018,18.663,39.018z M40.5,24.035H36v4.49h-2.998v-4.49h-4.501V21.04h4.501v-4.492H36v4.492h4.5V24.035z"
			/>
		<path fill="#CF3427" d="M19.593,21.385c-2.431-0.07-4.742-2.713-5.16-5.897c-0.418-3.19,1.212-5.629,3.643-5.556
			c2.43,0.075,4.742,2.631,5.161,5.817C23.657,18.935,22.026,21.458,19.593,21.385z M18.642,37.508
			c-3.622,0-6.238-2.285-6.238-5.034c0-2.693,3.247-4.938,6.87-4.898c0.843,0.01,1.633,0.146,2.345,0.372
			c1.968,1.367,3.377,2.14,3.778,3.692c0.071,0.319,0.115,0.643,0.115,0.972C25.513,35.357,23.733,37.508,18.642,37.508z"/>
	</g>
</g>
</svg>
