<?xml version="1.0" encoding="utf-8"?>
<!-- Generator: Adobe Illustrator 16.0.0, SVG Export Plug-In . SVG Version: 6.00 Build 0)  -->
<!DOCTYPE svg PUBLIC "-//W3C//DTD SVG 1.1//EN" "http://www.w3.org/Graphics/SVG/1.1/DTD/svg11.dtd">
<svg version="1.1" id="Layer_1" xmlns="http://www.w3.org/2000/svg" xmlns:xlink="http://www.w3.org/1999/xlink" x="0px" y="0px"
	 width="48px" height="48px" viewBox="0 0 48 48" enable-background="new 0 0 48 48" xml:space="preserve">
<path fill="#CF3427" d="M37.471,35.311v-9.371c0-5.02-2.682-7.355-6.253-7.355c-2.884,0-4.176,1.586-4.896,2.699v-2.315H20.89
	c0.072,1.534,0,16.343,0,16.343h5.432v-9.127c0-0.486,0.035-0.976,0.179-1.324c0.392-0.976,1.285-1.986,2.785-1.986
	c1.967,0,2.752,1.499,2.752,3.695v8.742H37.471L37.471,35.311z M15.167,16.737c1.894,0,3.074-1.256,3.074-2.824
	c-0.035-1.603-1.18-2.823-3.038-2.823c-1.857,0-3.073,1.219-3.073,2.823c0,1.568,1.179,2.824,3.002,2.824H15.167z M24,48
	C10.746,48,0,37.255,0,24S10.746,0,24,0c13.255,0,24,10.745,24,24S37.255,48,24,48z M17.883,35.311V18.968h-5.431v16.343H17.883z"/>
</svg>
