<?xml version="1.0" encoding="utf-8"?>
<!-- Generator: Adobe Illustrator 16.0.0, SVG Export Plug-In . SVG Version: 6.00 Build 0)  -->
<!DOCTYPE svg PUBLIC "-//W3C//DTD SVG 1.1//EN" "http://www.w3.org/Graphics/SVG/1.1/DTD/svg11.dtd">
<svg version="1.1" id="Layer_1" xmlns="http://www.w3.org/2000/svg" xmlns:xlink="http://www.w3.org/1999/xlink" x="0px" y="0px"
	 width="48px" height="48px" viewBox="0 0 48 48" enable-background="new 0 0 48 48" xml:space="preserve">
<g>
	<path fill="#747474" d="M24,0C10.745,0,0,10.746,0,24c0,13.254,10.745,24,24,24c13.256,0,24-10.745,24-24C48,10.746,37.256,0,24,0z
		 M26.393,32.314c-1.925,0-3.731-1.005-4.349-2.149c0,0-1.035,3.968-1.253,4.737c-0.771,2.708-3.037,5.417-3.212,5.643
		c-0.123,0.149-0.394,0.103-0.423-0.102c-0.048-0.344-0.627-3.762,0.052-6.546l2.291-9.393c0,0-0.569-1.099-0.569-2.726
		c0-2.556,1.528-4.461,3.433-4.461c1.619,0,2.4,1.179,2.4,2.587c0,1.578-1.04,3.934-1.572,6.114
		c-0.446,1.832,0.948,3.321,2.81,3.321c3.372,0,5.642-4.193,5.642-9.161c0-3.776-2.625-6.604-7.404-6.604
		c-5.397,0-8.763,3.899-8.763,8.253c0,1.502,0.457,2.563,1.174,3.381c0.329,0.375,0.375,0.528,0.255,0.957l-0.363,1.386
		c-0.117,0.438-0.485,0.591-0.89,0.43c-2.488-0.981-3.646-3.618-3.646-6.583c0-4.895,4.262-10.765,12.717-10.765
		c6.799,0,11.27,4.761,11.271,9.871C35.993,27.265,32.109,32.314,26.393,32.314z"/>
</g>
</svg>
