<?xml version="1.0" encoding="utf-8"?>
<!-- Generator: Adobe Illustrator 16.0.0, SVG Export Plug-In . SVG Version: 6.00 Build 0)  -->
<!DOCTYPE svg PUBLIC "-//W3C//DTD SVG 1.1//EN" "http://www.w3.org/Graphics/SVG/1.1/DTD/svg11.dtd">
<svg version="1.1" id="Layer_1" xmlns="http://www.w3.org/2000/svg" xmlns:xlink="http://www.w3.org/1999/xlink" x="0px" y="0px"
	 width="48px" height="48px" viewBox="0 0 48 48" enable-background="new 0 0 48 48" xml:space="preserve">
<path fill="#747474" d="M27.333,14.626c-2.095,0.762-3.419,2.729-3.269,4.88l0.051,0.831l-0.839-0.102
	c-3.05-0.389-5.716-1.711-7.979-3.932l-1.107-1.102l-0.285,0.814c-0.603,1.813-0.218,3.729,1.04,5.017
	c0.67,0.712,0.519,0.814-0.637,0.39c-0.403-0.135-0.755-0.237-0.789-0.187c-0.117,0.119,0.285,1.661,0.604,2.271
	c0.436,0.848,1.324,1.678,2.297,2.17l0.822,0.39l-0.972,0.017c-0.938,0-0.972,0.017-0.871,0.373
	c0.335,1.103,1.659,2.272,3.134,2.781l1.039,0.355l-0.905,0.542c-1.341,0.781-2.917,1.22-4.493,1.253
	c-0.755,0.017-1.375,0.085-1.375,0.137c0,0.168,2.046,1.117,3.235,1.491c3.57,1.102,7.812,0.626,10.997-1.255
	c2.263-1.339,4.525-4,5.582-6.576c0.57-1.373,1.141-3.881,1.141-5.084c0-0.78,0.05-0.881,0.989-1.813
	c0.553-0.542,1.071-1.135,1.173-1.305c0.167-0.322,0.15-0.322-0.704-0.034c-1.425,0.508-1.627,0.44-0.922-0.322
	c0.52-0.542,1.141-1.526,1.141-1.813c0-0.05-0.252,0.034-0.537,0.186c-0.302,0.17-0.973,0.424-1.476,0.576l-0.905,0.289
	l-0.821-0.561c-0.453-0.305-1.089-0.644-1.425-0.745C29.413,14.321,28.104,14.355,27.333,14.626z M24,48C10.746,48,0,37.255,0,24
	S10.746,0,24,0c13.255,0,24,10.745,24,24S37.255,48,24,48z"/>
</svg>
