<?xml version="1.0" encoding="utf-8"?>
<!-- Generator: Adobe Illustrator 16.0.0, SVG Export Plug-In . SVG Version: 6.00 Build 0)  -->
<!DOCTYPE svg PUBLIC "-//W3C//DTD SVG 1.1//EN" "http://www.w3.org/Graphics/SVG/1.1/DTD/svg11.dtd">
<svg version="1.1" id="Layer_1" xmlns="http://www.w3.org/2000/svg" xmlns:xlink="http://www.w3.org/1999/xlink" x="0px" y="0px"
	 width="48px" height="48px" viewBox="0 0 48 48" enable-background="new 0 0 48 48" xml:space="preserve">
<path fill="#CF3427" d="M11.585,19.98c0,0,2.241-1.767,2.988-0.884c0.747,0.884,3.598,11.546,4.55,13.513
	c0.832,1.727,3.123,4.005,5.636,2.375c2.511-1.627,10.865-8.758,12.358-17.179c1.494-8.42-10.051-6.657-11.273,0.68
	c3.057-1.835,4.689,0.745,3.124,3.667c-1.561,2.918-2.987,4.825-3.733,4.825c-0.746,0-1.319-1.955-2.172-5.371
	c-0.883-3.53-0.878-9.887-4.548-9.166c-3.464,0.68-8.014,6.114-8.014,6.114L11.585,19.98z M23.875,47.75
	C10.689,47.75,0,37.063,0,23.875C0,10.689,10.689,0,23.875,0C37.063,0,47.75,10.689,47.75,23.875
	C47.75,37.063,37.063,47.75,23.875,47.75z"/>
</svg>
