<?xml version="1.0" encoding="utf-8"?>
<!-- Generator: Adobe Illustrator 16.0.0, SVG Export Plug-In . SVG Version: 6.00 Build 0)  -->
<!DOCTYPE svg PUBLIC "-//W3C//DTD SVG 1.1//EN" "http://www.w3.org/Graphics/SVG/1.1/DTD/svg11.dtd">
<svg version="1.1" id="Layer_1" xmlns="http://www.w3.org/2000/svg" xmlns:xlink="http://www.w3.org/1999/xlink" x="0px" y="0px"
	 width="48.25px" height="48px" viewBox="0 0 48.25 48" enable-background="new 0 0 48.25 48" xml:space="preserve">
<path fill="#747474" d="M11.896,20.085c0,0,2.253-1.776,3.004-0.888c0.75,0.888,3.617,11.607,4.574,13.584
	c0.836,1.734,3.14,4.025,5.666,2.388c2.525-1.637,10.921-8.806,12.423-17.271c1.503-8.463-10.103-6.69-11.333,0.683
	c3.074-1.845,4.714,0.749,3.141,3.687c-1.568,2.934-3.003,4.849-3.753,4.849s-1.327-1.964-2.185-5.397
	c-0.887-3.548-0.883-9.939-4.573-9.214c-3.481,0.683-8.055,6.145-8.055,6.145L11.896,20.085z M24.25,48c-13.254,0-24-10.745-24-24
	s10.746-24,24-24c13.255,0,24,10.745,24,24S37.505,48,24.25,48z"/>
</svg>
