<?xml version="1.0" encoding="utf-8"?>
<!-- Generator: Adobe Illustrator 16.0.0, SVG Export Plug-In . SVG Version: 6.00 Build 0)  -->
<!DOCTYPE svg PUBLIC "-//W3C//DTD SVG 1.1//EN" "http://www.w3.org/Graphics/SVG/1.1/DTD/svg11.dtd">
<svg version="1.1" id="Layer_1" xmlns="http://www.w3.org/2000/svg" xmlns:xlink="http://www.w3.org/1999/xlink" x="0px" y="0px"
	 width="48px" height="48px" viewBox="0 0 48 48" enable-background="new 0 0 48 48" xml:space="preserve">
<g>
	<path fill="none" d="M28.228,20.317c0.294,0,0.598-0.083,0.912-0.25c0.315-0.165,0.617-0.41,0.905-0.728v0.864h1.572v-7.823h-1.574
		v5.938c-0.145,0.172-0.308,0.312-0.483,0.421c-0.177,0.11-0.324,0.165-0.438,0.165c-0.146,0-0.255-0.042-0.319-0.125
		c-0.065-0.083-0.102-0.217-0.102-0.402v-5.998H27.13v6.538c0,0.467,0.092,0.816,0.275,1.049S27.861,20.317,28.228,20.317z"/>
	<path fill="none" d="M23.56,20.401c0.715,0,1.274-0.19,1.685-0.571c0.405-0.381,0.609-0.905,0.609-1.575v-4.041
		c0-0.596-0.208-1.084-0.622-1.462c-0.417-0.379-0.952-0.569-1.601-0.569c-0.713,0-1.283,0.18-1.705,0.539
		c-0.425,0.359-0.637,0.841-0.636,1.448v4.055c0,0.665,0.208,1.193,0.618,1.587C22.322,20.204,22.874,20.401,23.56,20.401z
		 M22.909,14.111c0-0.171,0.061-0.31,0.18-0.415c0.121-0.105,0.276-0.157,0.469-0.157c0.207,0,0.375,0.052,0.502,0.157
		c0.129,0.105,0.193,0.244,0.193,0.415v4.261c0,0.208-0.063,0.373-0.188,0.495c-0.126,0.118-0.294,0.179-0.507,0.179
		c-0.209,0-0.369-0.058-0.48-0.176c-0.111-0.119-0.168-0.284-0.168-0.498V14.111z"/>
	<path fill="none" d="M23.995,23.183c0-0.001-9.662,0.014-10.813,1.159c-1.15,1.148-1.153,6.812-1.153,6.845
		c0,0.043,0.002,5.697,1.153,6.844c1.149,1.145,10.813,1.17,10.813,1.17s9.664-0.025,10.812-1.169
		c1.154-1.151,1.164-6.845,1.164-6.845c0-0.033-0.013-5.695-1.164-6.844C33.659,23.197,23.995,23.182,23.995,23.183z M19.16,27.68
		h-1.627v8.228h-1.574V27.68h-1.627v-1.398h4.829V27.68z M23.76,35.906h-1.394v0.001v-0.001v-0.779
		c-0.26,0.289-0.526,0.508-0.807,0.657c-0.279,0.152-0.549,0.226-0.812,0.226c-0.324,0-0.564-0.104-0.73-0.316
		c-0.161-0.214-0.244-0.527-0.244-0.952v-5.938h1.396v5.448c0,0.168,0.029,0.289,0.085,0.365c0.062,0.076,0.157,0.112,0.286,0.112
		c0.103,0,0.234-0.05,0.391-0.149c0.158-0.101,0.3-0.227,0.434-0.381v-5.396h1.396V35.906z M28.827,34.439
		c0,0.503-0.11,0.888-0.329,1.156c-0.217,0.27-0.535,0.401-0.95,0.401c-0.274,0-0.516-0.05-0.729-0.153s-0.415-0.263-0.597-0.481
		v0.545h-1.411v-9.626h1.411v3.1c0.191-0.216,0.389-0.382,0.599-0.494c0.214-0.113,0.428-0.169,0.645-0.169
		c0.443,0,0.78,0.151,1.012,0.452c0.236,0.303,0.351,0.746,0.351,1.328V34.439z M33.669,32.529h-2.67v1.335
		c0,0.374,0.045,0.634,0.136,0.779c0.095,0.144,0.25,0.215,0.474,0.215c0.231,0,0.393-0.061,0.485-0.184
		c0.092-0.122,0.14-0.391,0.14-0.81v-0.324h1.436v0.365c0,0.729-0.174,1.277-0.525,1.647c-0.348,0.367-0.872,0.55-1.567,0.55
		c-0.625,0-1.119-0.194-1.478-0.585c-0.358-0.389-0.542-0.926-0.542-1.611v-3.189c0-0.614,0.2-1.118,0.594-1.505
		c0.396-0.388,0.903-0.582,1.53-0.582c0.639,0,1.13,0.181,1.474,0.539c0.344,0.359,0.514,0.875,0.514,1.548V32.529z"/>
	<polygon fill="none" points="17.333,20.204 19.104,20.204 19.104,15.804 21.163,9.6 19.363,9.6 18.271,13.838 18.159,13.838 
		17.01,9.6 15.227,9.6 17.333,16.002 	"/>
	<path fill="#CF3427" d="M23.558,19.046c0.213,0,0.381-0.061,0.507-0.179c0.125-0.122,0.188-0.286,0.188-0.495v-4.261
		c0-0.171-0.064-0.31-0.193-0.415c-0.128-0.105-0.296-0.157-0.502-0.157c-0.193,0-0.348,0.052-0.469,0.157
		c-0.119,0.105-0.18,0.244-0.18,0.415v4.261c0,0.214,0.057,0.378,0.168,0.498C23.188,18.988,23.349,19.046,23.558,19.046z"/>
	<path fill="#CF3427" d="M24,0C10.746,0,0,10.745,0,24s10.746,24,24,24c13.255,0,24-10.745,24-24S37.255,0,24,0z M27.13,12.381
		h1.569v5.998c0,0.185,0.036,0.319,0.102,0.402c0.064,0.083,0.173,0.125,0.319,0.125c0.114,0,0.261-0.055,0.438-0.165
		c0.176-0.109,0.338-0.25,0.483-0.421v-5.938h1.574v7.823h-1.572V19.34c-0.288,0.318-0.589,0.563-0.905,0.728
		c-0.313,0.166-0.617,0.25-0.912,0.25c-0.367,0-0.639-0.117-0.822-0.35s-0.275-0.582-0.275-1.049V12.381z M21.291,14.17
		c-0.001-0.607,0.21-1.089,0.636-1.448c0.422-0.359,0.992-0.539,1.705-0.539c0.649,0,1.184,0.189,1.601,0.569
		c0.414,0.378,0.622,0.866,0.622,1.462v4.041c0,0.669-0.205,1.193-0.609,1.575c-0.411,0.381-0.97,0.571-1.685,0.571
		c-0.687,0-1.238-0.197-1.651-0.589c-0.411-0.394-0.618-0.922-0.618-1.587V14.17z M17.01,9.6l1.149,4.238h0.111L19.363,9.6h1.8
		l-2.059,6.204v4.4h-1.771v-4.202L15.227,9.6H17.01z M34.807,38.031C33.659,39.175,23.995,39.2,23.995,39.2
		s-9.663-0.025-10.813-1.17c-1.15-1.147-1.153-6.801-1.153-6.844c0-0.033,0.003-5.697,1.153-6.845
		c1.15-1.145,10.813-1.16,10.813-1.159c0-0.001,9.664,0.014,10.812,1.16c1.151,1.148,1.164,6.811,1.164,6.844
		C35.971,31.186,35.961,36.88,34.807,38.031z"/>
	<polygon fill="#CF3427" points="14.331,27.68 15.958,27.68 15.958,35.907 17.533,35.907 17.533,27.68 19.16,27.68 19.16,26.281 
		14.331,26.281 	"/>
	<path fill="#CF3427" d="M22.365,34.199c-0.133,0.154-0.276,0.28-0.434,0.381c-0.157,0.1-0.288,0.149-0.391,0.149
		c-0.129,0-0.225-0.036-0.286-0.112c-0.056-0.076-0.085-0.197-0.085-0.365v-5.448h-1.396v5.938c0,0.425,0.083,0.738,0.244,0.952
		c0.167,0.213,0.406,0.316,0.73,0.316c0.263,0,0.532-0.073,0.812-0.226c0.28-0.149,0.547-0.368,0.807-0.657v0.779h1.394v-7.103
		h-1.396V34.199z"/>
	<path fill="#CF3427" d="M31.681,28.63c-0.626,0-1.134,0.194-1.53,0.582c-0.394,0.387-0.594,0.891-0.594,1.505v3.189
		c0,0.686,0.183,1.223,0.542,1.611c0.359,0.391,0.853,0.585,1.478,0.585c0.695,0,1.219-0.183,1.567-0.55
		c0.352-0.37,0.525-0.918,0.525-1.647v-0.365h-1.436v0.324c0,0.419-0.048,0.688-0.14,0.81c-0.092,0.123-0.254,0.184-0.485,0.184
		c-0.224,0-0.379-0.071-0.474-0.215c-0.09-0.146-0.136-0.405-0.136-0.779v-1.335v-0.002v0.002h2.67v-1.812
		c0-0.673-0.17-1.189-0.514-1.548C32.811,28.811,32.32,28.63,31.681,28.63z M32.232,31.42h-1.234v-0.716
		c0-0.298,0.048-0.512,0.144-0.637c0.098-0.133,0.258-0.195,0.48-0.195c0.211,0,0.369,0.063,0.462,0.195
		c0.098,0.125,0.147,0.339,0.147,0.637V31.42z"/>
	<path fill="#CF3427" d="M27.465,28.719c-0.216,0-0.431,0.056-0.645,0.169c-0.209,0.111-0.408,0.278-0.599,0.494v-3.1h-1.411v9.626
		h1.411v-0.545c0.182,0.219,0.384,0.378,0.597,0.481s0.456,0.153,0.729,0.153c0.415,0,0.733-0.132,0.95-0.401
		c0.219-0.269,0.329-0.653,0.329-1.156v-3.94c0-0.582-0.115-1.025-0.351-1.328C28.245,28.87,27.908,28.719,27.465,28.719z
		 M27.391,34.244c0,0.229-0.042,0.39-0.123,0.488c-0.081,0.102-0.205,0.152-0.376,0.152c-0.119,0-0.229-0.027-0.337-0.078
		c-0.108-0.049-0.219-0.137-0.331-0.25v-4.425c0.095-0.098,0.19-0.17,0.287-0.216c0.097-0.047,0.195-0.069,0.296-0.069
		c0.188,0,0.333,0.061,0.435,0.185c0.099,0.124,0.148,0.306,0.148,0.545V34.244z"/>
</g>
</svg>
