<?xml version="1.0" encoding="utf-8"?>
<svg version="1.1" id="Layer_1" xmlns="http://www.w3.org/2000/svg" xmlns:xlink="http://www.w3.org/1999/xlink" x="0px" y="0px"
	 width="60px" height="60px" viewBox="0 0 60 60" style="enable-background:new 0 0 60 60;" xml:space="preserve">
<style type="text/css">
	.st0{fill:#FFFFFF;}
</style>
<g>
	<path class="st0" d="M16.5,28c-0.8-0.8-0.8-2,0-2.8l0.8-0.8c0.8-0.8,2-0.8,2.8,0l9.5,9.5c0.2,0.2,0.6,0.2,0.8,0l9.5-9.5
		c0.8-0.8,2-0.8,2.8,0l0.8,0.8c0.8,0.8,0.8,2,0,2.8L30.8,40.7c-0.5,0.5-1.2,0.5-1.7,0L16.5,28z"/>
	<path class="st0" d="M60,30c0,16.5-13.5,30-30,30S0,46.5,0,30S13.5,0,30,0S60,13.5,60,30z M4,30c0,14.3,11.7,26,26,26
		c14.3,0,26-11.6,26-26C56,15.7,44.3,4,30,4S4,15.7,4,30z"/>
</g>
</svg>
