<?xml version="1.0" encoding="utf-8"?>
<!-- Generator: Adobe Illustrator 21.0.2, SVG Export Plug-In . SVG Version: 6.00 Build 0)  -->
<svg version="1.1" id="_x33_" xmlns="http://www.w3.org/2000/svg" xmlns:xlink="http://www.w3.org/1999/xlink" x="0px" y="0px"
	 width="215px" height="48.4px" viewBox="0 0 215 48.4" style="enable-background:new 0 0 215 48.4;" xml:space="preserve">
<style type="text/css">
	.st0{fill:#FFFFFF;}
</style>
<g>
	<path class="st0" d="M24.2,0C10.8,0,0,10.8,0,24.2c0,13.3,10.8,24.2,24.2,24.2c12.3,0,22.4-9.2,24-21.1h-3.3
		c-1.5,10-10.2,17.7-20.6,17.7c-11.5,0-20.9-9.4-20.9-20.9c0-11.5,9.4-20.9,20.9-20.9c10.4,0,19.1,7.7,20.6,17.7h3.3
		C46.6,9.2,36.5,0,24.2,0z"/>
	<path class="st0" d="M24.2,40c-8.7,0-15.8-7.1-15.8-15.8c0-8.7,7.1-15.8,15.8-15.8c7.6,0,14,5.5,15.5,12.7h3.3
		c-1.5-9-9.3-15.9-18.7-15.9c-10.5,0-19,8.5-19,19c0,10.5,8.5,19,19,19c9.4,0,17.3-6.9,18.7-15.9h-3.3C38.2,34.5,31.8,40,24.2,40z"
		/>
	<path class="st0" d="M24.2,35c-6,0-10.8-4.9-10.8-10.8s4.9-10.8,10.8-10.8c4.9,0,9,3.2,10.3,7.7h3c-1.4-6.1-6.9-10.6-13.4-10.6
		c-7.6,0-13.7,6.2-13.7,13.7s6.2,13.7,13.7,13.7c6.5,0,11.9-4.5,13.4-10.6h-3C33.2,31.8,29.1,35,24.2,35z"/>
	<path class="st0" d="M60.7,31.6h0.2c0.3,0,0.6,0.1,0.8,0.3c0.2,0.2,0.4,0.5,0.4,0.8v10.4c0,0.3-0.1,0.6-0.4,0.8
		c-0.2,0.2-0.5,0.3-0.8,0.3h-0.2v0.2h4.1v-0.2h-0.2c-0.3,0-0.6-0.1-0.8-0.3c-0.2-0.2-0.4-0.5-0.4-0.8V32.8c0-0.3,0.1-0.6,0.4-0.8
		c0.2-0.2,0.5-0.3,0.8-0.3h0.2v-0.2h-4.1V31.6z"/>
	<path class="st0" d="M76.9,31.6h0.4c0.3,0,0.6,0.1,0.8,0.3c0.2,0.2,0.3,0.5,0.4,0.8v9.3L68.2,31.2H68l0,0.3c0.1,0.6,0.1,1.3,0.1,2
		v9.7c0,0.3-0.1,0.6-0.3,0.8c-0.2,0.2-0.5,0.3-0.8,0.3h-0.4v0.2h3.9v-0.2h-0.4c-0.2,0-0.4,0-0.6-0.1c-0.4-0.2-0.6-0.5-0.6-1v-9.3
		l10.2,10.9h0.2l0-0.3c-0.1-0.6-0.1-1.3-0.1-2.1v-9.7c0-0.3,0.1-0.6,0.4-0.8c0.2-0.2,0.5-0.3,0.8-0.3h0.3v-0.2h-3.9V31.6z"/>
	<path class="st0" d="M90.6,31.4h-6.3c-0.4,0-0.8,0-1.3-0.1c-0.5-0.1-0.8-0.1-1-0.2v2.4l0.2,0v-0.3c0-0.3,0.1-0.6,0.3-0.8
		c0.2-0.2,0.5-0.3,0.8-0.3h3.6v11.2c0,0.3-0.1,0.6-0.4,0.8c-0.2,0.2-0.5,0.3-0.8,0.3h-0.2v0.2h4.1v-0.2h-0.2c-0.3,0-0.6-0.1-0.8-0.3
		c-0.2-0.2-0.4-0.5-0.4-0.8V32h3.6c0.3,0,0.5,0.1,0.7,0.3c0.2,0.2,0.3,0.5,0.3,0.8v0.3l0.2,0v-2.4c-0.1,0-0.3,0.1-0.7,0.2
		C91.7,31.4,91.2,31.4,90.6,31.4z"/>
	<path class="st0" d="M101.8,43.4c-0.5,0.4-1.2,0.6-2.1,0.6H97v-5.6h3.2c0.2,0,0.5,0.1,0.6,0.3c0.2,0.2,0.3,0.4,0.3,0.6v0.3h0.2v-3
		H101v0.3c0,0.3-0.1,0.5-0.3,0.7c-0.2,0.2-0.4,0.3-0.6,0.3H97V32h3.8c0.3,0,0.5,0.1,0.7,0.3c0.2,0.2,0.3,0.5,0.3,0.8v0.3h0.2v-2.4
		c-0.2,0.1-0.5,0.1-1,0.2c-0.5,0.1-0.9,0.1-1.3,0.1h-5.5l0,0.2h0.2c0.3,0,0.6,0.1,0.8,0.3c0.2,0.2,0.4,0.5,0.4,0.8v10.5
		c0,0.3-0.1,0.6-0.4,0.8c-0.2,0.2-0.5,0.3-0.8,0.3h-0.2v0.2h7.8l1.1-3H103C102.6,42.3,102.2,42.9,101.8,43.4z"/>
	<path class="st0" d="M115,43.8c-0.2-0.1-0.3-0.3-0.4-0.4c-0.1-0.1-0.4-0.4-0.7-0.7c-0.3-0.4-1-1.3-2.1-2.8
		c-0.2-0.3-0.4-0.5-0.7-0.8c-0.3-0.3-0.5-0.4-0.7-0.5c0.9,0,1.6-0.4,2.3-1.1c0.6-0.7,0.9-1.6,0.9-2.6c0-1-0.3-1.8-1-2.5
		c-0.6-0.6-1.5-0.9-2.7-0.9h-5.1v0.2h0.2c0.3,0,0.6,0.1,0.8,0.3c0.2,0.2,0.4,0.5,0.4,0.8v10.4c0,0.3-0.1,0.6-0.4,0.8
		c-0.2,0.2-0.5,0.3-0.8,0.3h-0.2v0.2h4.1l0-0.2h-0.2c-0.3,0-0.6-0.1-0.9-0.3c-0.2-0.2-0.3-0.5-0.3-0.8V32h1.2c0.4,0,0.8,0,1.1,0
		c0.7,0,1.3,0.3,1.7,0.8c0.4,0.5,0.6,1.2,0.7,2c0,0.1,0,0.2,0,0.4s0,0.5-0.1,0.7c-0.4,1.3-1.4,1.9-2.9,1.9c-0.2,0-0.4,0-0.6,0
		c-0.2,0-0.3,0-0.4,0v0.2c0.4,0,0.8,0.2,1.2,0.6c0.1,0.1,0.3,0.3,0.4,0.5c0.1,0.2,0.6,0.8,1.3,1.9c0.8,1.1,1.2,1.7,1.4,1.9
		c0.2,0.2,0.4,0.4,0.6,0.6c0.2,0.2,0.6,0.4,1,0.6c0.5,0.2,1,0.3,1.5,0.3h1v-0.2c-0.4,0-0.8-0.1-1.2-0.3
		C115.3,44,115.2,43.9,115,43.8z"/>
	<path class="st0" d="M127,31.6h0.4c0.3,0,0.6,0.1,0.8,0.3c0.2,0.2,0.3,0.5,0.4,0.8v9.3l-10.2-10.9h-0.2l0,0.3
		c0.1,0.6,0.1,1.3,0.1,2v9.7c0,0.3-0.1,0.6-0.3,0.8c-0.2,0.2-0.5,0.3-0.8,0.3h-0.4v0.2h3.9v-0.2h-0.4c-0.2,0-0.4,0-0.6-0.1
		c-0.4-0.2-0.6-0.5-0.6-1v-9.3l10.2,10.9h0.2l0-0.3c-0.1-0.6-0.1-1.3-0.1-2.1v-9.7c0-0.3,0.1-0.6,0.4-0.8c0.2-0.2,0.5-0.3,0.8-0.3
		h0.3v-0.2H127V31.6z"/>
	<path class="st0" d="M143.8,44.1c-0.3-0.2-0.5-0.5-0.7-0.9l-5-12h-0.2c0,0.3-0.2,0.9-0.7,1.9L133,43.2c-0.2,0.4-0.4,0.7-0.7,0.9
		c-0.3,0.2-0.6,0.3-0.9,0.3h-0.2v0.2h3.8v-0.2h-0.2c-0.3,0-0.5-0.1-0.6-0.3c-0.1-0.2-0.2-0.3-0.2-0.5c0-0.1,0-0.3,0.1-0.4l1.3-3.2
		h5.1l1.2,3.2c0,0.1,0.1,0.3,0.1,0.4c0,0.1-0.1,0.3-0.2,0.5c-0.1,0.2-0.3,0.3-0.6,0.3h-0.2v0.2h4.2v-0.2h-0.1
		C144.4,44.4,144.1,44.3,143.8,44.1z M135.6,39.4l2.4-6l2.2,6H135.6z"/>
	<path class="st0" d="M152.3,31.4H146c-0.4,0-0.8,0-1.3-0.1c-0.5-0.1-0.8-0.1-1-0.2v2.4l0.2,0v-0.3c0-0.3,0.1-0.6,0.3-0.8
		c0.2-0.2,0.5-0.3,0.8-0.3h3.6v11.2c0,0.3-0.1,0.6-0.4,0.8c-0.2,0.2-0.5,0.3-0.8,0.3h-0.2v0.2h4.1v-0.2H151c-0.3,0-0.6-0.1-0.8-0.3
		c-0.2-0.2-0.4-0.5-0.4-0.8V32h3.6c0.3,0,0.5,0.1,0.7,0.3c0.2,0.2,0.3,0.5,0.3,0.8v0.3l0.2,0v-2.4c-0.1,0-0.3,0.1-0.7,0.2
		C153.5,31.4,152.9,31.4,152.3,31.4z"/>
	<path class="st0" d="M156.1,31.6h0.2c0.3,0,0.6,0.1,0.8,0.3c0.2,0.2,0.4,0.5,0.4,0.8v10.4c0,0.3-0.1,0.6-0.4,0.8
		c-0.2,0.2-0.5,0.3-0.8,0.3h-0.2v0.2h4.1v-0.2h-0.2c-0.3,0-0.6-0.1-0.8-0.3c-0.2-0.2-0.4-0.5-0.4-0.8V32.8c0-0.3,0.1-0.6,0.4-0.8
		c0.2-0.2,0.5-0.3,0.8-0.3h0.2v-0.2h-4.1V31.6z"/>
	<path class="st0" d="M168.9,31.2c-2,0-3.6,0.6-4.9,1.9c-1.2,1.3-1.9,2.9-1.9,4.9c0,2,0.6,3.7,1.9,4.9c1.2,1.3,2.9,1.9,4.9,1.9
		c2,0,3.6-0.6,4.9-1.9c1.2-1.3,1.9-2.9,1.9-4.9c0-2-0.6-3.7-1.9-4.9C172.6,31.8,170.9,31.2,168.9,31.2z M172.8,42.5
		c-1,1.1-2.2,1.7-3.8,1.7c-1.6,0-2.9-0.6-3.8-1.7c-1-1.1-1.5-2.7-1.5-4.5c0-1.9,0.5-3.4,1.5-4.5c1-1.1,2.2-1.7,3.8-1.7
		c1,0,2,0.3,2.8,0.8c0.8,0.5,1.4,1.3,1.9,2.2c0.4,0.9,0.7,2,0.7,3.3C174.2,39.9,173.8,41.4,172.8,42.5z"/>
	<path class="st0" d="M187.3,31.6h0.4c0.3,0,0.6,0.1,0.8,0.3c0.2,0.2,0.3,0.5,0.4,0.8v9.3l-10.2-10.9h-0.2l0,0.3
		c0.1,0.6,0.1,1.3,0.1,2v9.7c0,0.3-0.1,0.6-0.3,0.8c-0.2,0.2-0.5,0.3-0.8,0.3h-0.4v0.2h3.9v-0.2h-0.4c-0.2,0-0.4,0-0.6-0.1
		c-0.4-0.2-0.6-0.5-0.6-1v-9.3l10.2,10.9h0.2l0-0.3c-0.1-0.6-0.1-1.3-0.1-2.1v-9.7c0-0.3,0.1-0.6,0.4-0.8c0.2-0.2,0.5-0.3,0.8-0.3
		h0.3v-0.2h-3.9V31.6z"/>
	<path class="st0" d="M204.2,44.1c-0.3-0.2-0.5-0.5-0.7-0.9l-5-12h-0.2c0,0.3-0.2,0.9-0.7,1.9l-4.2,10.1c-0.2,0.4-0.4,0.7-0.7,0.9
		c-0.3,0.2-0.6,0.3-0.9,0.3h-0.2v0.2h3.8v-0.2h-0.2c-0.3,0-0.5-0.1-0.6-0.3c-0.1-0.2-0.2-0.3-0.2-0.5c0-0.1,0-0.3,0.1-0.4l1.3-3.2
		h5.1l1.2,3.2c0,0.1,0.1,0.3,0.1,0.4c0,0.1-0.1,0.3-0.2,0.5c-0.1,0.2-0.3,0.3-0.6,0.3H201v0.2h4.2v-0.2h-0.1
		C204.8,44.4,204.5,44.3,204.2,44.1z M195.9,39.4l2.4-6l2.2,6H195.9z"/>
	<path class="st0" d="M214.8,41.5c-0.3,0.8-0.7,1.4-1.2,1.8c-0.5,0.4-1.2,0.6-2.1,0.6h-2.7V32.8c0-0.2,0.1-0.4,0.2-0.6
		c0.2-0.4,0.6-0.6,1-0.6h0.2v-0.2h-4.1v0.2h0.2c0.3,0,0.6,0.1,0.8,0.3c0.2,0.2,0.4,0.5,0.4,0.8v10.4c0,0.3-0.1,0.6-0.4,0.8
		c-0.2,0.2-0.5,0.3-0.8,0.3h-0.2v0.2h7.8l1.1-3H214.8z"/>
	<path class="st0" d="M70,24.9c3.6,0,6.2-1.4,7.9-4.2l0.3-4.4H78c-0.3,2.8-1.2,4.8-2.8,6C73.8,23.4,72.1,24,70,24
		c-2.4-0.1-4.3-0.9-5.7-2.7c-1.5-1.7-2.2-4-2.2-6.8c0-2.8,0.7-5.1,2.2-6.8c1.5-1.7,3.4-2.6,5.9-2.6c1.7,0,3.2,0.4,4.5,1.3
		c1.3,0.9,2.1,2.1,2.5,3.7h0.3l-0.6-4c-1.9-1.3-4.1-1.9-6.7-1.9c-3.1,0-5.5,0.9-7.4,2.8c-1.9,1.9-2.8,4.3-2.8,7.4
		c0,3.1,0.9,5.5,2.8,7.4C64.6,23.9,67,24.8,70,24.9z"/>
	<path class="st0" d="M84.9,24.3h-0.2c-0.3,0-0.6-0.1-0.8-0.3c-0.2-0.2-0.4-0.5-0.4-0.8V12.7c0-0.3,0.1-0.6,0.4-0.8
		c0.2-0.2,0.5-0.3,0.8-0.3h0.2v-0.2h-4.1v0.2H81c0.3,0,0.6,0.1,0.8,0.3c0.2,0.2,0.4,0.5,0.4,0.8v10.4c0,0.3-0.1,0.6-0.4,0.8
		c-0.2,0.2-0.5,0.3-0.8,0.3h-0.2v0.2h4.1V24.3z"/>
	<path class="st0" d="M92.7,23.9c-0.2-0.2-0.4-0.5-0.4-0.8V11.9h3.6c0.3,0,0.5,0.1,0.7,0.3c0.2,0.2,0.3,0.5,0.3,0.8v0.3l0.2,0V11
		c-0.1,0-0.3,0.1-0.7,0.2c-0.4,0.1-0.9,0.1-1.5,0.1h-6.3c-0.4,0-0.8,0-1.3-0.1c-0.5-0.1-0.8-0.1-1-0.2v2.4l0.2,0V13
		c0-0.3,0.1-0.6,0.3-0.8c0.2-0.2,0.5-0.3,0.8-0.3h3.6v11.2c0,0.3-0.1,0.6-0.4,0.8c-0.2,0.2-0.5,0.3-0.8,0.3h-0.2v0.2h4.1v-0.2h-0.2
		C93.2,24.3,93,24.2,92.7,23.9z"/>
	<path class="st0" d="M98.7,11.9c0.3,0.2,0.6,0.5,0.8,0.8l3.6,6v4.5c0,0.3-0.1,0.6-0.4,0.8c-0.2,0.2-0.5,0.3-0.8,0.3h-0.2v0.2h4.1
		v-0.2h-0.2c-0.3,0-0.6-0.1-0.9-0.3c-0.2-0.2-0.3-0.5-0.3-0.8v-4.5l3.7-6c0.2-0.3,0.5-0.6,0.8-0.8c0.3-0.2,0.7-0.3,1.1-0.3h0.3v-0.2
		H106v0.2h0.2c0.3,0,0.5,0.1,0.6,0.4c0.1,0.1,0.1,0.3,0.1,0.4c0,0.1,0,0.2-0.1,0.4l-3,5.3l-2.8-5.2c-0.1-0.1-0.1-0.3-0.1-0.4
		c0-0.1,0-0.3,0.1-0.4c0.1-0.2,0.4-0.4,0.6-0.4h0.2v-0.2h-4.6v0.2h0.3C98,11.5,98.4,11.6,98.7,11.9z"/>
</g>
</svg>
