<?xml version="1.0" encoding="utf-8"?>
<!-- Generator: Adobe Illustrator 19.2.1, SVG Export Plug-In . SVG Version: 6.00 Build 0)  -->
<svg version="1.1" id="Layer_1" xmlns="http://www.w3.org/2000/svg" xmlns:xlink="http://www.w3.org/1999/xlink" x="0px" y="0px"
	 width="25px" height="25px" viewBox="0 0 25 25" style="enable-background:new 0 0 25 25;" xml:space="preserve">
<style type="text/css">
	.st0{fill:#FFFFFF;}
	.st1{fill:#03A9F4;}
</style>
<g>
	<g>
		<g>
			<path class="st0" d="M24.1,19.7l-4.9-4.9c0.7-1.4,1.1-3,1.1-4.6C20.3,4.5,15.8,0,10.2,0C4.5,0,0,4.5,0,10.2s4.5,10.2,10.2,10.2
				c1.7,0,3.2-0.4,4.6-1.1l4.9,4.9c0.6,0.6,1.4,0.9,2.2,0.9c0.8,0,1.6-0.3,2.2-0.9C25.3,22.9,25.3,20.9,24.1,19.7z M23,23
				c-0.3,0.3-0.7,0.5-1.1,0.5c-0.4,0-0.8-0.2-1.1-0.5l-5.7-5.7l-1,0.5c-1.2,0.6-2.5,0.9-3.9,0.9c-4.7,0-8.6-3.9-8.6-8.6
				s3.9-8.6,8.6-8.6s8.6,3.9,8.6,8.6c0,1.4-0.3,2.7-0.9,3.9l-0.5,1l0.8,0.8l4.9,4.9c0.3,0.3,0.5,0.7,0.5,1.1
				C23.4,22.3,23.3,22.7,23,23z"/>
		</g>
	</g>
	<path class="st1" d="M10.2,4.7c3,0,5.5,2.5,5.5,5.5s-2.5,5.5-5.5,5.5s-5.5-2.5-5.5-5.5S7.1,4.7,10.2,4.7 M10.2,3.1
		c-3.9,0-7,3.1-7,7c0,3.9,3.1,7,7,7s7-3.1,7-7C17.2,6.3,14,3.1,10.2,3.1L10.2,3.1z"/>
</g>
</svg>
